<svg xmlns="http://www.w3.org/2000/svg" viewBox="0 0 1200 630" role="img" aria-label="ДесмосАвто — сайты для автосервисов">
  <rect width="1200" height="630" fill="#F8FAFC"/>
  <rect x="80" y="70" width="1040" height="490" rx="28" fill="#FFFFFF" stroke="#E2E8F0" stroke-width="4"/>
  <g transform="translate(130 125) scale(0.3536585366)">
    <path d="M136 0H0V136H136V0Z" fill="#080808"/>
    <path d="M164 0H224C306 0 328 54 328 136H164V0Z" fill="#080808"/>
    <path d="M164 300H226C306 300 328 246 328 164C242 166 186 218 164 300Z" fill="#080808"/>
    <path d="M136 164H0V300H136V164Z" fill="#FF5A1F"/>
  </g>
  <text x="280" y="165" font-family="Arial, sans-serif" font-size="42" font-weight="800" fill="#2563EB">ДесмосАвто</text>
  <text x="280" y="230" font-family="Arial, sans-serif" font-size="54" font-weight="900" fill="#020617">Сайт за сутки</text>
  <text x="280" y="292" font-family="Arial, sans-serif" font-size="32" font-weight="500" fill="#334155">Без предоплаты, 120 рабочих кейсов</text>
  <rect x="130" y="360" width="250" height="92" rx="18" fill="#E0F2FE"/>
  <text x="160" y="416" font-family="Arial, sans-serif" font-size="26" font-weight="800" fill="#1D4ED8">120 кейсов</text>
  <rect x="410" y="360" width="250" height="92" rx="18" fill="#FEF3C7"/>
  <text x="440" y="416" font-family="Arial, sans-serif" font-size="26" font-weight="800" fill="#92400E">PHP-заявки</text>
  <rect x="690" y="360" width="300" height="92" rx="18" fill="#DCFCE7"/>
  <text x="720" y="416" font-family="Arial, sans-serif" font-size="26" font-weight="800" fill="#166534">Мобильная структура</text>
</svg>
